# xmcd
#
# Track frame offsets: 
#        183
#        22215
#        36320
#        54725
#        73623
#        85343
#        104895
#        121245
#        146425
#        162780
#        187525
#        207798
#        220043
#        242400
#        265488
#        285018
#        308070
#
# Disc length: 4361 seconds
#
# Revision: 5
# Processed by: cddbd v1.5.2PL0 Copyright (c) Steve Scherf et al.
# Submitted via: ExactAudioCopy v0.95b4
#
DISCID=ee110711
DTITLE=Various Artist - The Originals: Midnight Blues Songs
DYEAR=1993
DGENRE=Blues
TTITLE0=Vaya Con Dios - Lulu's Song
TTITLE1=Joe Cocker - You Are So Beautiful
TTITLE2=Ruby Turner - I'd Rather Go Blind
TTITLE3=Kenny G - Tradewinds
TTITLE4=Carly Simon - My Romance
TTITLE5=Carl Anderson - Enough Said
TTITLE6=Brendan Croker and The 5 O'Clock Shadows - No Money At All
TTITLE7=Jennifer Warnes - Famous Blue Raincoat
TTITLE8=The Blues Band - Lonely Avenue
TTITLE9=Lee Ritenour - Linda
TTITLE10=Khadja Nin - Leo Leya
TTITLE11=J.J. Cale - Lady Luck
TTITLE12=Tuck and Patti - Takes My Breath Away
TTITLE13=Patti Austin - Through The Test Of Time
TTITLE14=Barry Manilow and Mel Tormé - Big City Blues
TTITLE15=B.B. King - The Thrill Is Gone
TTITLE16=Dionne Warwick - Night And Day (Jazz version)
EXTD=YEAR: 1993
EXTT0=Vaya Con Dios\n
EXTT1=Joe Cocker\n
EXTT2=Ruby Turner\n
EXTT3=Kenny G.\n
EXTT4=Carly Simon\n
EXTT5=Carl Anderson\n
EXTT6=Brendan Crocker And The 5 O'clock\n
EXTT7=Jennifer Warnes\n
EXTT8=The Blues Band\n
EXTT9=Lee Ritenour\n
EXTT10=Khadja Nin\n
EXTT11=J.J. Cale\n
EXTT12=Tuck And Patti\n
EXTT13=Patti Austin\n
EXTT14=Barry Manilow and Mel Torme\n
EXTT15=B.B. King\n
EXTT16=Dionne Warwick\n
PLAYORDER=
